<?xml version="1.0" encoding="utf-8"?>
<!-- Generator: Adobe Illustrator 22.1.0, SVG Export Plug-In . SVG Version: 6.00 Build 0)  -->
<svg version="1.1" id="Layer_1" xmlns="http://www.w3.org/2000/svg" xmlns:xlink="http://www.w3.org/1999/xlink" x="0px" y="0px"
	 viewBox="0 0 32 32" style="enable-background:new 0 0 32 32;" xml:space="preserve">
<title>hootsuite</title>
<path d="M16,0L16,0c1.8,0,3.5,0.4,5,1.2C22.6,0.4,24.3,0,26,0h0.9v32l-0.9,0c-5.6,0-10.9-2.2-14.9-6.2C7.2,21.9,5,16.6,5.1,11V0H6
	c1.7,0,3.4,0.4,5,1.2C12.5,0.4,14.2,0,16,0L16,0z M16,0.9c-1.8,0-3.6,0.5-5.1,1.4C9.4,1.4,7.7,0.9,6,0.9h0V11
	c0,11.1,9,20.1,20.1,20.2V0.9h0c-1.8,0-3.5,0.5-5,1.3C19.5,1.3,17.8,0.9,16,0.9L16,0.9z M20.3,4.5c2.4,0,4.3,1.9,4.3,4.3
	c0,2.4-1.9,4.3-4.3,4.3c-0.8,0-1.6-0.2-2.3-0.7l-2,2l-2-2c-2,1.3-4.7,0.7-6-1.4c-1.3-2-0.7-4.7,1.4-6c2-1.3,4.7-0.7,6,1.4
	c0.4,0.6,0.6,1.2,0.6,1.9l0,0l0,0C16.2,6.2,18.1,4.5,20.3,4.5L20.3,4.5z M11.7,11.7c1.6,0,2.9-1.3,2.9-2.9c0-0.3,0-0.6-0.1-0.9
	c-0.3,0.7-1.2,1-1.9,0.7c-0.7-0.3-1.1-1.2-0.7-1.9c0.1-0.3,0.4-0.6,0.7-0.7C11,5.6,9.4,6.5,8.9,8C8.8,8.2,8.8,8.5,8.8,8.8
	C8.8,10.4,10.1,11.7,11.7,11.7L11.7,11.7z M20.3,11.7c1.6,0,2.9-1.3,2.9-2.9c0-1.6-1.3-2.9-2.9-2.9c-0.3,0-0.6,0-0.9,0.1
	c0.7,0.3,1.1,1.2,0.7,1.9c-0.3,0.7-1.2,1-1.9,0.7C18,8.6,17.7,8.3,17.6,8c-0.5,1.5,0.4,3.1,1.9,3.6C19.7,11.7,20,11.7,20.3,11.7z"/>
</svg>
