<?xml version="1.0" encoding="utf-8"?>
<!-- Generator: Adobe Illustrator 25.4.1, SVG Export Plug-In . SVG Version: 6.00 Build 0)  -->
<svg version="1.1" id="Layer_1" xmlns="http://www.w3.org/2000/svg" xmlns:xlink="http://www.w3.org/1999/xlink" x="0px" y="0px"
	 viewBox="0 0 188 243" style="enable-background:new 0 0 188 243;" xml:space="preserve">
<style type="text/css">
	.st0{fill:#C0242B;}
	.st1{fill:url(#SVGID_1_);}
	.st2{fill:#FFFFFF;}
</style>
<g>
	<path class="st0" d="M174.4,164.1c-11.4,20.1-27.9,36.2-56.4,59.2c-4.6-57.4-1.2-90.5-1.2-90.5c-0.5-3.6-9-5.5-18.9-4.2
		s-17.7,5.3-17.2,8.9l0,0c0,0,13.6,39.7,23.3,96.8c-3.2,2.5-6.5,5.1-9.9,7.7c-43.9-33.9-66.2-52.9-80.4-77.9
		c-20-35.3-7.9-65.2,17.4-76.9c21.4-9.9,46.4-2.5,59.2,16.4c-18.8,3.4-32.6,11.8-31.9,16.9l6.1,16.4l0.3,0c-0.1-0.3-0.2-0.7-0.3-1
		c-0.9-6.7,13.5-14.2,32.1-16.6s34.4,1,35.3,7.8c0.1,0.3,0,0.7,0,1l0.1,0l1.8-17.5c-0.7-5.1-16.3-9.7-35.3-8.1
		c13-18.1,37.4-25,58.4-15.3C182.2,98.9,194.3,128.8,174.4,164.1z M138.6,50.9c17.4-7.2,27.3-32.6,11.8-50
		c4.6,20.5-21.6,22.3-42.2,26.1c-38.7,7.2-45,42.9-27.4,61.1c-2-21.6,15.2-34.4,36.8-34.2c-7.8,4.7-13.9,15.9-10.9,27.2
		c10.5-15.4,42.4-1.5,53-36.9C152.5,49.8,143.3,51.5,138.6,50.9z"/>
	
		<linearGradient id="SVGID_1_" gradientUnits="userSpaceOnUse" x1="175.5137" y1="76.64" x2="116.6811" y2="76.64" gradientTransform="matrix(1 0 0 -1 0 244)">
		<stop  offset="0" style="stop-color:#C0242B"/>
		<stop  offset="0.9717" style="stop-color:#850303"/>
	</linearGradient>
	<path class="st1" d="M133.4,110.3c0.2,0.3,0.3,0.6,0.3,1l-1.8,17.5l-0.1,0c-0.4,4.2-6.5,8.6-15.6,11.8c-0.6,10.7-1.4,33.3,0.4,65.6
		c0,0,0,0,0,0.1l0,0c0,0,0,0.1,0,0.1l0,0c0.3,5.7,0.7,11.7,1.2,17.9c23.4-18.9,38.7-33.2,49.7-48.9c2.4-3.4,4.6-6.9,6.6-10.5
		c1.6-2.8,2.9-5.6,4.1-8.3L133.4,110.3z"/>
	<path class="st2" d="M94.4,102.9c-20.9,2.8-36.8,12.2-36.1,17.6l6.1,16.5l0.3,0c-0.1-0.3-0.2-0.7-0.3-1
		c-0.9-6.8,13.5-14.2,32.1-16.7c18.6-2.4,34.4,1.1,35.3,7.8c0.1,0.3,0,0.7,0,1l0.1,0l1.8-17.5C133.1,105.1,115.3,100.1,94.4,102.9
		 M117.9,223.6c-4.7-57.7-1.2-90.8-1.2-90.8c-0.5-3.6-9.1-5.5-19.2-4.2c-10.1,1.3-17.9,5.3-17.4,9l0,0c0,0,13.8,39.8,23.6,97.2
		C108.8,230.9,113.5,227.2,117.9,223.6"/>
</g>
</svg>
