<svg width="33" height="33" viewBox="0 0 33 33" fill="none" xmlns="http://www.w3.org/2000/svg">
<g clip-path="url(#clip0_329_55)">
<path fill-rule="evenodd" clip-rule="evenodd" d="M16.5 0C7.38375 0 0 7.38375 0 16.5C0 23.8013 4.72312 29.9681 11.2819 32.1544C12.1069 32.2988 12.4162 31.8038 12.4162 31.3706C12.4162 30.9788 12.3956 29.6794 12.3956 28.2975C8.25 29.0606 7.1775 27.2869 6.8475 26.3588C6.66188 25.8844 5.8575 24.42 5.15625 24.0281C4.57875 23.7188 3.75375 22.9556 5.13562 22.935C6.435 22.9144 7.36312 24.1313 7.6725 24.6263C9.1575 27.1219 11.5294 26.4206 12.4781 25.9875C12.6225 24.915 13.0556 24.1931 13.53 23.7806C9.85875 23.3681 6.0225 21.945 6.0225 15.6338C6.0225 13.8394 6.66188 12.3544 7.71375 11.1994C7.54875 10.7869 6.97125 9.09563 7.87875 6.82688C7.87875 6.82688 9.26062 6.39375 12.4162 8.51813C13.7362 8.14688 15.1387 7.96125 16.5412 7.96125C17.9437 7.96125 19.3462 8.14688 20.6662 8.51813C23.8219 6.37313 25.2037 6.82688 25.2037 6.82688C26.1112 9.09563 25.5338 10.7869 25.3688 11.1994C26.4206 12.3544 27.06 13.8188 27.06 15.6338C27.06 21.9656 23.2031 23.3681 19.5319 23.7806C20.13 24.2963 20.6456 25.2863 20.6456 26.8331C20.6456 29.04 20.625 30.8138 20.625 31.3706C20.625 31.8038 20.9344 32.3194 21.7594 32.1544C25.0349 31.0485 27.8811 28.9433 29.8975 26.1351C31.914 23.3269 32.999 19.9571 33 16.5C33 7.38375 25.6163 0 16.5 0Z" fill="white"/>
</g>
<defs>
<clipPath id="clip0_329_55">
<rect width="33" height="33" fill="white"/>
</clipPath>
</defs>
</svg>
