<svg width="37" height="37" viewBox="0 0 37 37" fill="none" xmlns="http://www.w3.org/2000/svg">
<path fill-rule="evenodd" clip-rule="evenodd" d="M1.5415 4.37509C1.5415 3.62358 1.84004 2.90284 2.37144 2.37144C2.90284 1.84004 3.62357 1.54151 4.37509 1.54151H32.6215C32.9939 1.5409 33.3628 1.61375 33.7071 1.7559C34.0513 1.89805 34.3641 2.1067 34.6276 2.3699C34.8911 2.6331 35.1001 2.94569 35.2426 3.28977C35.3851 3.63385 35.4584 4.00266 35.4582 4.37509V32.6215C35.4586 32.994 35.3855 33.3629 35.2432 33.7072C35.1009 34.0514 34.8921 34.3642 34.6288 34.6277C34.3655 34.8912 34.0528 35.1001 33.7086 35.2426C33.3644 35.3851 32.9955 35.4584 32.623 35.4582H4.37509C4.00285 35.4582 3.63425 35.3848 3.29037 35.2423C2.94648 35.0998 2.63404 34.891 2.3709 34.6277C2.10775 34.3644 1.89907 34.0519 1.75676 33.7079C1.61445 33.3639 1.5413 32.9953 1.5415 32.623V4.37509ZM14.9663 14.473H19.559V16.7793C20.2219 15.4535 21.9177 14.2603 24.4661 14.2603C29.3516 14.2603 30.5094 16.9011 30.5094 21.7466V30.7222H25.5653V22.8504C25.5653 20.0908 24.9024 18.5338 23.2189 18.5338C20.8833 18.5338 19.912 20.2126 19.912 22.8504V30.7222H14.9663V14.473ZM6.48717 30.511H11.4328V14.2603H6.48717V30.5094V30.511ZM12.1405 8.96001C12.1498 9.38346 12.0744 9.80451 11.9188 10.1985C11.7632 10.5924 11.5305 10.9513 11.2343 11.2541C10.9381 11.5568 10.5845 11.7974 10.194 11.9616C9.80362 12.1259 9.38433 12.2105 8.96078 12.2105C8.53722 12.2105 8.11793 12.1259 7.72751 11.9616C7.33709 11.7974 6.98342 11.5568 6.68723 11.2541C6.39105 10.9513 6.15832 10.5924 6.00272 10.1985C5.84711 9.80451 5.77176 9.38346 5.78109 8.96001C5.79939 8.12882 6.14243 7.33785 6.73674 6.75648C7.33106 6.17511 8.12939 5.84957 8.96078 5.84957C9.79216 5.84957 10.5905 6.17511 11.1848 6.75648C11.7791 7.33785 12.1222 8.12882 12.1405 8.96001V8.96001Z" fill="white"/>
</svg>
